<?xml version="1.0" encoding="utf-8"?>
<svg width="256" height="256" viewBox="0 0 256 256" fill="none" xmlns="http://www.w3.org/2000/svg">
  <rect x="3.621" y="3.186" width="249.018" height="249.279" fill="#002E47" style=""/>
  <defs>
    <linearGradient id="nitoshuGradient" x1="64" y1="48" x2="208" y2="224" gradientUnits="userSpaceOnUse" gradientTransform="matrix(1.166581, 0, 0, 1.202104, -36.282447, -25.035186)">
      <stop offset="0" stop-color="#38BDF8"/>
      <stop offset="1" stop-color="#A855F7"/>
    </linearGradient>
    <linearGradient id="nitoshuAccent" x1="106.041" y1="76.889" x2="202.041" y2="188.889" gradientUnits="userSpaceOnUse" gradientTransform="matrix(1.166581, 0, 0, 1.202104, -26.09931, -27.623514)">
      <stop offset="0" stop-color="#FACC15"/>
      <stop offset="1" stop-color="#F97316"/>
    </linearGradient>
  </defs>
  <rect x="2.043" y="2.478" width="251.454" height="250.991" stroke="#002E47" stroke-width="4" style=""/>
  <path d="M 82.206 30.754 L 147.534 30.754 L 194.198 78.838 L 194.198 203.857 C 194.198 214.48 185.842 223.091 175.533 223.091 L 82.206 223.091 C 71.898 223.091 63.541 214.48 63.541 203.857 L 63.541 49.988 C 63.541 39.365 71.898 30.754 82.206 30.754 Z" style="fill: rgb(234, 238, 255);"/>
  <path d="M 146.516 31.538 L 146.516 70.175 C 146.516 75.508 150.649 79.832 155.749 79.832 L 192.684 79.832" stroke="#1E293B" stroke-width="4" stroke-linecap="round" stroke-linejoin="round" style=""/>
  <path d="M 75.709 186.536 L 75.709 109.601 C 75.709 100.307 83.021 92.772 92.042 92.772 C 101.062 92.772 108.374 100.307 108.374 109.601 L 108.374 148.068 C 108.374 157.363 115.871 166.237 124.891 166.237 C 133.912 166.237 141.038 157.363 141.038 148.068 L 141.038 90.368" stroke="url(#nitoshuGradient)" stroke-width="10" stroke-linecap="round" stroke-linejoin="round" style=""/>
  <line x1="70.88" y1="203.784" x2="148.325" y2="203.195" stroke="#1F2937" stroke-width="4" stroke-linecap="round" style=""/>
  <path d="M 155 125 L 185 125 M 170 125 L 170 185 M 155 185 L 185 185" stroke="url(#nitoshuAccent)" stroke-width="6" stroke-linecap="round" stroke-linejoin="" />
</svg>